<svg version="1.1" id="Layer_1" xmlns="http://www.w3.org/2000/svg" xmlns:xlink="http://www.w3.org/1999/xlink" x="0px" y="0px"
	 width="100%" viewBox="0 0 522 81" enable-background="new 0 0 522 81" xml:space="preserve">
<path fill="#FFFEFD" opacity="1.000000" stroke="none" 
	d="
M504.001465,82.000000 
	C336.001251,82.000000 168.501358,82.000000 1.001094,82.000000 
	C1.000730,55.000504 1.000730,28.001005 1.000365,1.001131 
	C174.999390,1.000754 348.998779,1.000754 522.998657,1.000377 
	C522.999084,27.999376 522.999084,54.998753 522.999512,81.999069 
	C516.833923,82.000000 510.667816,82.000000 504.001465,82.000000 
M61.171249,18.062078 
	C57.780804,17.080114 54.390358,16.098150 50.202110,14.919978 
	C45.115185,16.129091 40.004204,17.249197 34.958984,18.612640 
	C33.762951,18.935863 32.676212,19.958857 31.731632,20.861368 
	C28.992380,23.478617 26.270817,26.124603 23.708879,28.912386 
	C22.620541,30.096668 21.611687,31.560123 21.150539,33.074486 
	C19.955908,36.997520 19.085640,41.019325 17.795771,45.606197 
	C18.714632,49.115765 19.633493,52.625332 20.697163,56.958954 
	C20.269842,62.434040 22.873636,65.992920 28.064444,68.730972 
	C30.988003,71.175720 33.647522,74.095009 36.918663,75.915077 
	C39.536003,77.371376 42.896877,77.491356 46.365273,78.734581 
	C48.305271,78.853348 50.544601,79.661659 52.133602,78.971878 
	C59.119480,75.939278 68.305725,76.874977 72.272659,68.188568 
	C72.454910,67.789490 73.003151,67.509468 73.437218,67.280876 
	C78.036072,64.858978 79.381973,60.873039 79.211441,55.335991 
	C81.727142,50.546692 83.769173,45.747971 79.399460,39.961586 
	C79.213470,38.005875 79.609314,35.708225 78.707275,34.173336 
	C77.298775,31.776665 75.010788,29.896852 72.782455,27.208118 
	C71.564034,25.673527 70.570801,23.853613 69.073715,22.672112 
	C66.900864,20.957293 64.364243,19.703413 61.171249,18.062078 
M379.776154,35.383820 
	C375.369507,27.444445 371.144684,25.949753 361.047394,28.861382 
	C361.618927,31.558239 359.179871,35.278084 364.001740,36.583488 
	C364.504150,36.719513 364.689392,38.654598 364.725525,39.764610 
	C364.822906,42.755390 364.835938,45.754063 364.730408,48.744240 
	C364.673462,50.357563 364.698334,53.150734 364.014008,53.376823 
	C359.007629,55.030861 361.630341,58.642254 361.107697,61.670891 
	C366.606964,61.670891 371.659149,61.670891 377.207428,61.670891 
	C376.883484,59.043690 377.266052,55.269875 376.219086,54.819572 
	C371.090027,52.613468 373.995880,48.869064 373.269897,45.536663 
	C374.088043,45.839783 374.521667,45.860580 374.647125,46.067886 
	C376.540497,49.196541 378.399963,52.345821 380.254456,55.497875 
	C384.614441,62.908398 384.611633,62.910046 394.083221,61.412701 
	C394.083221,54.388771 394.048889,47.279278 394.115173,40.170719 
	C394.126984,38.905754 394.270477,36.701900 394.838562,36.529316 
	C399.892273,34.994064 397.277985,31.345985 397.763428,28.278555 
	C392.243347,28.278555 387.172089,28.278555 381.634003,28.278555 
	C381.868622,31.033735 382.076172,33.470997 381.585419,35.940136 
	C381.119659,35.947903 380.653931,35.955669 379.776154,35.383820 
M135.084198,41.706528 
	C135.300629,39.933254 135.036102,36.887569 135.811951,36.594315 
	C140.651947,34.764889 138.299194,31.339788 138.519409,27.997580 
	C133.991135,27.997580 129.370193,26.846148 125.863602,28.329319 
	C122.520317,29.743422 120.338959,33.904610 117.908073,36.571476 
	C114.091110,34.682533 115.682098,27.857386 109.548523,27.977093 
	C105.292686,28.060152 101.033905,27.993073 95.690704,27.993073 
	C96.621674,31.230822 97.180183,33.611317 98.010529,35.892887 
	C98.490662,37.212147 99.931328,38.331364 100.030762,39.611221 
	C100.313576,43.251736 100.193153,46.930279 100.090157,50.589878 
	C100.060204,51.654057 99.823723,53.424774 99.225288,53.648121 
	C94.351173,55.467213 96.976341,58.881996 96.909470,61.649288 
	C102.859100,61.649288 108.437569,61.649288 114.506851,61.649288 
	C114.131264,59.181915 114.367767,55.649940 113.413666,55.292057 
	C107.160324,52.946419 110.880379,48.405903 110.297951,44.846527 
	C111.877823,46.502678 112.941772,48.339951 114.040993,50.155876 
	C116.511429,54.237095 118.611076,54.188007 121.146210,49.988338 
	C122.226135,48.199352 123.269012,46.387997 124.328735,44.586807 
	C124.741508,44.683109 125.154289,44.779408 125.567070,44.875710 
	C125.099358,47.910797 125.538521,52.895401 123.993309,53.614204 
	C119.419678,55.741768 121.005112,58.631691 121.024849,61.579636 
	C127.171783,61.579636 132.879623,61.579636 138.757111,61.579636 
	C138.341339,58.309364 140.360031,54.642433 135.606125,53.419666 
	C135.219528,53.320232 135.132629,51.603443 135.108658,50.633194 
	C135.042862,47.971169 135.084885,45.306484 135.084198,41.706528 
M196.238800,57.663841 
	C196.069244,56.703400 196.178802,55.094875 195.686859,54.883003 
	C190.888351,52.816395 193.224747,49.067146 193.355072,45.776890 
	C195.728928,48.983273 197.761276,52.337135 199.752289,55.715370 
	C204.027954,62.970039 204.351944,63.116802 213.557831,61.324123 
	C213.557831,54.448879 213.531158,47.485806 213.581802,40.523300 
	C213.591202,39.231323 213.545197,37.039928 214.147781,36.794750 
	C218.617111,34.976189 216.764969,31.527090 216.953934,28.271248 
	C211.561783,28.271248 206.498596,28.271248 200.738312,28.271248 
	C201.134933,30.955029 200.795105,34.873863 201.951813,35.381294 
	C206.416290,37.339802 204.502472,40.141071 203.873489,43.002155 
	C201.139481,39.019997 198.902451,34.809906 196.432831,30.740971 
	C195.749649,29.615366 194.424988,28.215319 193.308319,28.134556 
	C189.072113,27.828180 184.800537,28.011190 179.684586,28.011190 
	C180.359085,31.120216 180.241074,34.908333 181.473907,35.416012 
	C184.689209,36.740051 183.941727,38.929333 183.998184,41.080215 
	C184.081131,44.239990 184.090515,47.406132 183.978195,50.564117 
	C183.940277,51.629894 183.691193,53.418457 183.106140,53.619759 
	C178.110947,55.338482 180.778748,58.827255 180.601074,62.002129 
	C185.166168,62.002129 189.334717,62.222927 193.448486,61.845989 
	C194.469666,61.752419 195.313553,59.723740 196.238800,57.663841 
M469.976410,35.529980 
	C470.990479,36.740292 472.752869,37.877842 472.878937,39.174503 
	C473.263458,43.129158 473.072266,47.146450 472.974579,51.136162 
	C472.952972,52.018433 472.603699,53.472839 472.049896,53.671139 
	C467.138702,55.429726 469.737518,58.866886 469.682678,61.755859 
	C475.512665,61.755859 480.952301,61.755859 487.434845,61.755859 
	C486.669525,58.963879 486.195984,56.565548 485.333496,54.316338 
	C484.718170,52.711720 483.580353,51.307457 482.675690,49.813789 
	C483.404999,49.392639 484.134308,48.971489 484.863586,48.550339 
	C486.449188,51.102921 488.073425,53.632420 489.612793,56.212585 
	C493.575836,62.855118 494.518890,63.246052 501.813232,61.362335 
	C505.774597,54.718021 497.097198,53.194069 496.849823,46.952217 
	C497.108521,46.794067 498.814117,46.336285 498.982544,45.549427 
	C499.810822,41.680588 501.315308,37.451180 500.419067,33.893757 
	C499.807739,31.467300 495.778809,28.542719 493.037323,28.271261 
	C485.339203,27.509026 477.516479,28.005434 469.493073,28.005434 
	C469.493073,30.611469 469.493073,32.718967 469.976410,35.529980 
M169.017151,36.420689 
	C168.312546,33.704472 167.607925,30.988255 166.920212,28.337196 
	C160.217529,28.337196 153.812378,28.337196 147.144928,28.337196 
	C147.144928,30.326956 146.787125,32.083424 147.252029,33.585201 
	C147.663986,34.915909 149.972992,36.205616 149.753372,37.096508 
	C148.374985,42.687798 147.976456,49.580807 144.393600,53.251312 
	C141.215927,56.506710 142.365143,58.691402 141.924774,61.757774 
	C146.897278,61.757774 151.473083,61.757774 157.067642,61.757774 
	C156.365280,58.914871 155.581787,56.529118 155.269440,54.083206 
	C155.148590,53.136898 155.966278,51.282242 156.579895,51.179768 
	C158.358551,50.882744 160.250549,51.264431 161.924698,51.368950 
	C161.126831,55.131969 160.457962,58.286598 159.716476,61.783691 
	C166.166962,61.783691 171.585770,61.783691 178.036621,61.783691 
	C177.383224,59.168591 177.412979,55.548428 176.168488,55.038582 
	C172.988449,53.735775 172.749619,51.314381 172.102676,48.836224 
	C171.095093,44.976665 170.160690,41.098000 169.017151,36.420689 
M269.639862,61.138096 
	C275.289215,61.526165 280.938568,61.914234 286.718964,62.311306 
	C286.718964,59.348278 286.718964,57.375481 286.718964,55.402683 
	C286.278900,55.602955 285.838837,55.803226 285.398743,56.003502 
	C284.092224,53.657818 282.328552,51.450066 281.570831,48.938789 
	C279.793549,43.048615 278.586975,36.988235 276.930145,31.058020 
	C276.606903,29.901016 275.329041,28.188278 274.428619,28.148294 
	C268.527222,27.886250 262.608551,28.013313 256.657043,28.013313 
	C256.657043,30.753698 255.846344,33.813538 256.796173,34.525883 
	C261.106384,37.758369 258.076599,41.027187 257.346130,44.168678 
	C256.601715,47.370026 256.198761,52.183620 254.110764,53.231407 
	C249.256821,55.667198 251.424988,58.666729 251.407806,61.677006 
	C256.404755,61.677006 260.994843,61.677006 266.378967,61.677006 
	C265.576111,57.996639 264.878784,54.800159 264.055969,51.028389 
	C265.972290,51.028389 267.830658,50.731358 269.500549,51.163155 
	C270.250610,51.357109 271.157227,53.064159 271.060730,53.987209 
	C270.837036,56.127678 270.045959,58.208847 269.639862,61.138096 
M405.604553,27.997000 
	C404.027466,27.997000 402.450378,27.997000 400.627380,27.997000 
	C401.050934,31.586781 398.954529,35.117096 403.496674,36.652828 
	C404.013031,36.827419 404.081726,38.748043 404.109497,39.865231 
	C404.187988,43.022408 404.206451,46.184998 404.106384,49.340946 
	C404.060669,50.782467 404.073303,53.221447 403.389984,53.487339 
	C398.555542,55.368538 401.185669,58.778240 400.897339,62.003021 
	C407.336548,62.003021 413.302765,62.008595 419.268951,62.001629 
	C426.985565,61.992615 432.379364,56.560623 432.382080,48.806896 
	C432.382843,46.645390 432.136017,44.449673 432.430695,42.329113 
	C433.168854,37.017006 431.658691,32.833069 426.770416,30.313784 
	C424.818604,29.307878 422.669128,28.253080 420.546295,28.100199 
	C415.914764,27.766647 411.242584,27.997011 405.604553,27.997000 
M353.293945,62.007370 
	C355.487335,62.177044 357.250397,62.015965 357.021576,58.982178 
	C356.813080,56.217705 356.977417,53.425114 356.977417,49.947659 
	C354.167114,50.284229 350.460510,49.887363 350.000397,50.927177 
	C347.882446,55.712986 344.400574,53.585991 341.213562,53.800495 
	C341.213562,51.718121 341.213562,50.003063 341.213562,48.157021 
	C343.940063,48.032726 346.336060,47.923496 348.936890,47.804932 
	C348.806702,45.568336 348.713684,43.970047 348.610565,42.198029 
	C345.883575,42.043556 343.471100,41.906902 340.828674,41.757221 
	C340.942535,39.564671 341.031982,37.842060 341.141571,35.731762 
	C344.011169,36.059330 347.721436,35.580826 348.299438,36.708229 
	C350.551941,41.101601 353.516693,39.559742 356.582153,38.968334 
	C356.582153,35.279076 356.582153,31.849653 356.582153,28.379337 
	C346.596954,28.379337 336.903168,28.379337 326.948273,28.379337 
	C327.671509,31.492159 325.126465,35.223377 329.956512,36.560123 
	C330.474731,36.703541 330.686737,38.615452 330.721771,39.717125 
	C330.822144,42.874630 330.824005,46.039307 330.730103,49.197163 
	C330.686859,50.651608 330.671875,53.182568 330.061401,53.374775 
	C325.054840,54.951084 327.584717,58.598076 327.084625,62.007740 
	C335.781372,62.007740 344.058807,62.007740 353.293945,62.007370 
M311.825043,61.892147 
	C314.243164,55.077217 316.655914,48.260384 319.083374,41.448788 
	C319.639130,39.889305 319.837494,37.429256 320.899536,36.957439 
	C325.468536,34.927570 323.801392,31.557472 323.704987,28.263149 
	C318.744171,28.263149 314.159149,28.263149 308.830170,28.263149 
	C310.287292,35.551201 311.558624,42.629257 307.450958,48.929237 
	C302.562286,42.622524 305.072052,35.246979 305.579132,28.299614 
	C299.346558,28.299614 293.918182,28.299614 287.780060,28.299614 
	C288.234100,31.026035 288.266815,33.497944 289.112213,35.650661 
	C289.936615,37.749836 291.923920,39.383167 292.802002,41.472599 
	C294.018860,44.368172 294.659485,47.503941 295.576080,50.528000 
	C299.069153,62.052784 299.073547,62.051453 311.825043,61.892147 
M451.429535,62.006660 
	C461.574768,62.004589 464.979218,58.600163 464.979248,48.456966 
	C464.979248,44.795616 465.003784,41.134060 464.972717,37.472973 
	C464.936523,33.213459 460.281189,28.252867 456.001709,28.019993 
	C453.512695,27.884548 451.010284,27.991972 448.513916,27.993721 
	C440.343109,27.999445 436.446075,31.864990 436.444336,39.964149 
	C436.443695,43.126225 436.808380,46.340725 436.362427,49.438595 
	C435.616730,54.618042 437.604553,58.345764 442.034149,60.408096 
	C444.561127,61.584629 447.668304,61.515114 451.429535,62.006660 
M236.361099,48.018047 
	C236.896194,49.460480 237.431290,50.902908 237.966385,52.345337 
	C236.204163,52.888691 234.434906,53.838650 232.682587,53.808407 
	C231.770233,53.792656 230.206375,52.108227 230.114883,51.073395 
	C229.793716,47.440701 229.852707,43.755714 230.049789,40.105831 
	C230.120499,38.796417 230.842392,36.532074 231.526260,36.429371 
	C233.676422,36.106453 237.237488,35.792961 237.949997,36.924942 
	C240.863083,41.553043 244.459534,39.090233 247.815155,39.190910 
	C248.884888,35.165646 247.769363,32.710262 244.837463,30.183470 
	C241.221786,27.067375 237.308960,28.108624 233.473587,28.047812 
	C223.483810,27.889423 219.918884,31.571964 219.918564,41.602966 
	C219.918472,44.431747 219.917526,47.260525 219.918762,50.089306 
	C219.921906,57.323486 224.577347,62.116734 231.801147,61.938393 
	C234.465210,61.872623 237.121353,60.611324 239.761093,60.678707 
	C242.429550,60.746822 245.073242,61.785023 247.999847,62.461109 
	C247.999847,55.041935 247.999847,48.784626 247.999847,42.287338 
	C243.198761,42.287338 238.636581,42.287338 232.975616,42.287338 
	C233.985153,44.596466 234.724960,46.288612 236.361099,48.018047 
z"/>
<path fill="#FFC106" opacity="1.000000" stroke="none" 
	d="
M135.084198,42.174690 
	C135.084885,45.306484 135.042862,47.971169 135.108658,50.633194 
	C135.132629,51.603443 135.219528,53.320232 135.606125,53.419666 
	C140.360031,54.642433 138.341339,58.309364 138.757111,61.579636 
	C132.879623,61.579636 127.171783,61.579636 121.024849,61.579636 
	C121.005112,58.631691 119.419678,55.741768 123.993309,53.614204 
	C125.538521,52.895401 125.099358,47.910797 125.567070,44.875710 
	C125.154289,44.779408 124.741508,44.683109 124.328735,44.586807 
	C123.269012,46.387997 122.226135,48.199352 121.146210,49.988338 
	C118.611076,54.188007 116.511429,54.237095 114.040993,50.155876 
	C112.941772,48.339951 111.877823,46.502678 110.297951,44.846527 
	C110.880379,48.405903 107.160324,52.946419 113.413666,55.292057 
	C114.367767,55.649940 114.131264,59.181915 114.506851,61.649288 
	C108.437569,61.649288 102.859100,61.649288 96.909470,61.649288 
	C96.976341,58.881996 94.351173,55.467213 99.225288,53.648121 
	C99.823723,53.424774 100.060204,51.654057 100.090157,50.589878 
	C100.193153,46.930279 100.313576,43.251736 100.030762,39.611221 
	C99.931328,38.331364 98.490662,37.212147 98.010529,35.892887 
	C97.180183,33.611317 96.621674,31.230822 95.690704,27.993073 
	C101.033905,27.993073 105.292686,28.060152 109.548523,27.977093 
	C115.682098,27.857386 114.091110,34.682533 117.908073,36.571476 
	C120.338959,33.904610 122.520317,29.743422 125.863602,28.329319 
	C129.370193,26.846148 133.991135,27.997580 138.519409,27.997580 
	C138.299194,31.339788 140.651947,34.764889 135.811951,36.594315 
	C135.036102,36.887569 135.300629,39.933254 135.084198,42.174690 
z"/>
<path fill="#FFC106" opacity="1.000000" stroke="none" 
	d="
M196.238861,58.124191 
	C195.313553,59.723740 194.469666,61.752419 193.448486,61.845989 
	C189.334717,62.222927 185.166168,62.002129 180.601074,62.002129 
	C180.778748,58.827255 178.110947,55.338482 183.106140,53.619759 
	C183.691193,53.418457 183.940277,51.629894 183.978195,50.564117 
	C184.090515,47.406132 184.081131,44.239990 183.998184,41.080215 
	C183.941727,38.929333 184.689209,36.740051 181.473907,35.416012 
	C180.241074,34.908333 180.359085,31.120216 179.684586,28.011190 
	C184.800537,28.011190 189.072113,27.828180 193.308319,28.134556 
	C194.424988,28.215319 195.749649,29.615366 196.432831,30.740971 
	C198.902451,34.809906 201.139481,39.019997 203.873489,43.002155 
	C204.502472,40.141071 206.416290,37.339802 201.951813,35.381294 
	C200.795105,34.873863 201.134933,30.955029 200.738312,28.271248 
	C206.498596,28.271248 211.561783,28.271248 216.953934,28.271248 
	C216.764969,31.527090 218.617111,34.976189 214.147781,36.794750 
	C213.545197,37.039928 213.591202,39.231323 213.581802,40.523300 
	C213.531158,47.485806 213.557831,54.448879 213.557831,61.324123 
	C204.351944,63.116802 204.027954,62.970039 199.752289,55.715370 
	C197.761276,52.337135 195.728928,48.983273 193.355072,45.776890 
	C193.224747,49.067146 190.888351,52.816395 195.686859,54.883003 
	C196.178802,55.094875 196.069244,56.703400 196.238861,58.124191 
z"/>
<path fill="#FFC006" opacity="1.000000" stroke="none" 
	d="
M382.283722,35.908257 
	C382.076172,33.470997 381.868622,31.033735 381.634003,28.278555 
	C387.172089,28.278555 392.243347,28.278555 397.763428,28.278555 
	C397.277985,31.345985 399.892273,34.994064 394.838562,36.529316 
	C394.270477,36.701900 394.126984,38.905754 394.115173,40.170719 
	C394.048889,47.279278 394.083221,54.388771 394.083221,61.412701 
	C384.611633,62.910046 384.614441,62.908398 380.254456,55.497875 
	C378.399963,52.345821 376.540497,49.196541 374.647125,46.067886 
	C374.521667,45.860580 374.088043,45.839783 373.269897,45.536663 
	C373.995880,48.869064 371.090027,52.613468 376.219086,54.819572 
	C377.266052,55.269875 376.883484,59.043690 377.207428,61.670891 
	C371.659149,61.670891 366.606964,61.670891 361.107697,61.670891 
	C361.630341,58.642254 359.007629,55.030861 364.014008,53.376823 
	C364.698334,53.150734 364.673462,50.357563 364.730408,48.744240 
	C364.835938,45.754063 364.822906,42.755390 364.725525,39.764610 
	C364.689392,38.654598 364.504150,36.719513 364.001740,36.583488 
	C359.179871,35.278084 361.618927,31.558239 361.047394,28.861382 
	C371.144684,25.949753 375.369507,27.444445 380.052673,36.012245 
	C381.742035,39.231319 383.154846,41.821972 384.567688,44.412624 
	C384.933136,44.210560 385.298553,44.008499 385.663971,43.806438 
	C384.042297,41.360809 388.596161,36.580563 382.283722,35.908257 
z"/>
<path fill="#FFC005" opacity="1.000000" stroke="none" 
	d="
M469.734741,35.178223 
	C469.493073,32.718967 469.493073,30.611469 469.493073,28.005434 
	C477.516479,28.005434 485.339203,27.509026 493.037323,28.271261 
	C495.778809,28.542719 499.807739,31.467300 500.419067,33.893757 
	C501.315308,37.451180 499.810822,41.680588 498.982544,45.549427 
	C498.814117,46.336285 497.108521,46.794067 496.849823,46.952217 
	C497.097198,53.194069 505.774597,54.718021 501.813232,61.362335 
	C494.518890,63.246052 493.575836,62.855118 489.612793,56.212585 
	C488.073425,53.632420 486.449188,51.102921 484.863586,48.550339 
	C484.134308,48.971489 483.404999,49.392639 482.675690,49.813789 
	C483.580353,51.307457 484.718170,52.711720 485.333496,54.316338 
	C486.195984,56.565548 486.669525,58.963879 487.434845,61.755859 
	C480.952301,61.755859 475.512665,61.755859 469.682678,61.755859 
	C469.737518,58.866886 467.138702,55.429726 472.049896,53.671139 
	C472.603699,53.472839 472.952972,52.018433 472.974579,51.136162 
	C473.072266,47.146450 473.263458,43.129158 472.878937,39.174503 
	C472.752869,37.877842 470.990479,36.740292 469.734741,35.178223 
M489.855408,41.691574 
	C489.986328,40.031551 490.543732,37.046844 490.178070,36.929134 
	C488.005249,36.229607 485.618774,36.193542 482.976929,35.897953 
	C483.121643,38.419529 483.213715,40.024158 483.324219,41.949539 
	C485.431976,41.949539 487.231018,41.949539 489.855408,41.691574 
z"/>
<path fill="#FFC106" opacity="1.000000" stroke="none" 
	d="
M169.106201,36.824059 
	C170.160690,41.098000 171.095093,44.976665 172.102676,48.836224 
	C172.749619,51.314381 172.988449,53.735775 176.168488,55.038582 
	C177.412979,55.548428 177.383224,59.168591 178.036621,61.783691 
	C171.585770,61.783691 166.166962,61.783691 159.716476,61.783691 
	C160.457962,58.286598 161.126831,55.131969 161.924698,51.368950 
	C160.250549,51.264431 158.358551,50.882744 156.579895,51.179768 
	C155.966278,51.282242 155.148590,53.136898 155.269440,54.083206 
	C155.581787,56.529118 156.365280,58.914871 157.067642,61.757774 
	C151.473083,61.757774 146.897278,61.757774 141.924774,61.757774 
	C142.365143,58.691402 141.215927,56.506710 144.393600,53.251312 
	C147.976456,49.580807 148.374985,42.687798 149.753372,37.096508 
	C149.972992,36.205616 147.663986,34.915909 147.252029,33.585201 
	C146.787125,32.083424 147.144928,30.326956 147.144928,28.337196 
	C153.812378,28.337196 160.217529,28.337196 166.920212,28.337196 
	C167.607925,30.988255 168.312546,33.704472 169.106201,36.824059 
z"/>
<path fill="#FFC106" opacity="1.000000" stroke="none" 
	d="
M269.562378,60.726074 
	C270.045959,58.208847 270.837036,56.127678 271.060730,53.987209 
	C271.157227,53.064159 270.250610,51.357109 269.500549,51.163155 
	C267.830658,50.731358 265.972290,51.028389 264.055969,51.028389 
	C264.878784,54.800159 265.576111,57.996639 266.378967,61.677006 
	C260.994843,61.677006 256.404755,61.677006 251.407806,61.677006 
	C251.424988,58.666729 249.256821,55.667198 254.110764,53.231407 
	C256.198761,52.183620 256.601715,47.370026 257.346130,44.168678 
	C258.076599,41.027187 261.106384,37.758369 256.796173,34.525883 
	C255.846344,33.813538 256.657043,30.753698 256.657043,28.013313 
	C262.608551,28.013313 268.527222,27.886250 274.428619,28.148294 
	C275.329041,28.188278 276.606903,29.901016 276.930145,31.058020 
	C278.586975,36.988235 279.793549,43.048615 281.570831,48.938789 
	C282.328552,51.450066 284.092224,53.657818 285.398743,56.003502 
	C285.838837,55.803226 286.278900,55.602955 286.718964,55.402683 
	C286.718964,57.375481 286.718964,59.348278 286.718964,62.311306 
	C280.938568,61.914234 275.289215,61.526165 269.562378,60.726074 
z"/>
<path fill="#FFC004" opacity="1.000000" stroke="none" 
	d="
M406.095795,27.996983 
	C411.242584,27.997011 415.914764,27.766647 420.546295,28.100199 
	C422.669128,28.253080 424.818604,29.307878 426.770416,30.313784 
	C431.658691,32.833069 433.168854,37.017006 432.430695,42.329113 
	C432.136017,44.449673 432.382843,46.645390 432.382080,48.806896 
	C432.379364,56.560623 426.985565,61.992615 419.268951,62.001629 
	C413.302765,62.008595 407.336548,62.003021 400.897339,62.003021 
	C401.185669,58.778240 398.555542,55.368538 403.389984,53.487339 
	C404.073303,53.221447 404.060669,50.782467 404.106384,49.340946 
	C404.206451,46.184998 404.187988,43.022408 404.109497,39.865231 
	C404.081726,38.748043 404.013031,36.827419 403.496674,36.652828 
	C398.954529,35.117096 401.050934,31.586781 400.627380,27.997000 
	C402.450378,27.997000 404.027466,27.997000 406.095795,27.996983 
M420.841095,53.344791 
	C421.281677,49.836124 422.006195,46.335266 422.102966,42.817146 
	C422.295929,35.799068 421.806000,35.492538 414.485291,36.418304 
	C414.485291,42.108116 414.485291,47.835213 414.485291,53.803959 
	C416.508514,53.803959 418.292816,53.803959 420.841095,53.344791 
z"/>
<path fill="#FFC106" opacity="1.000000" stroke="none" 
	d="
M352.815094,62.007553 
	C344.058807,62.007740 335.781372,62.007740 327.084625,62.007740 
	C327.584717,58.598076 325.054840,54.951084 330.061401,53.374775 
	C330.671875,53.182568 330.686859,50.651608 330.730103,49.197163 
	C330.824005,46.039307 330.822144,42.874630 330.721771,39.717125 
	C330.686737,38.615452 330.474731,36.703541 329.956512,36.560123 
	C325.126465,35.223377 327.671509,31.492159 326.948273,28.379337 
	C336.903168,28.379337 346.596954,28.379337 356.582153,28.379337 
	C356.582153,31.849653 356.582153,35.279076 356.582153,38.968334 
	C353.516693,39.559742 350.551941,41.101601 348.299438,36.708229 
	C347.721436,35.580826 344.011169,36.059330 341.141571,35.731762 
	C341.031982,37.842060 340.942535,39.564671 340.828674,41.757221 
	C343.471100,41.906902 345.883575,42.043556 348.610565,42.198029 
	C348.713684,43.970047 348.806702,45.568336 348.936890,47.804932 
	C346.336060,47.923496 343.940063,48.032726 341.213562,48.157021 
	C341.213562,50.003063 341.213562,51.718121 341.213562,53.800495 
	C344.400574,53.585991 347.882446,55.712986 350.000397,50.927177 
	C350.460510,49.887363 354.167114,50.284229 356.977417,49.947659 
	C356.977417,53.425114 356.813080,56.217705 357.021576,58.982178 
	C357.250397,62.015965 355.487335,62.177044 352.815094,62.007553 
z"/>
<path fill="#FFC106" opacity="1.000000" stroke="none" 
	d="
M311.388428,61.942291 
	C299.073547,62.051453 299.069153,62.052784 295.576080,50.528000 
	C294.659485,47.503941 294.018860,44.368172 292.802002,41.472599 
	C291.923920,39.383167 289.936615,37.749836 289.112213,35.650661 
	C288.266815,33.497944 288.234100,31.026035 287.780060,28.299614 
	C293.918182,28.299614 299.346558,28.299614 305.579132,28.299614 
	C305.072052,35.246979 302.562286,42.622524 307.450958,48.929237 
	C311.558624,42.629257 310.287292,35.551201 308.830170,28.263149 
	C314.159149,28.263149 318.744171,28.263149 323.704987,28.263149 
	C323.801392,31.557472 325.468536,34.927570 320.899536,36.957439 
	C319.837494,37.429256 319.639130,39.889305 319.083374,41.448788 
	C316.655914,48.260384 314.243164,55.077217 311.388428,61.942291 
z"/>
<path fill="#FFC006" opacity="1.000000" stroke="none" 
	d="
M450.971863,62.006660 
	C447.668304,61.515114 444.561127,61.584629 442.034149,60.408096 
	C437.604553,58.345764 435.616730,54.618042 436.362427,49.438595 
	C436.808380,46.340725 436.443695,43.126225 436.444336,39.964149 
	C436.446075,31.864990 440.343109,27.999445 448.513916,27.993721 
	C451.010284,27.991972 453.512695,27.884548 456.001709,28.019993 
	C460.281189,28.252867 464.936523,33.213459 464.972717,37.472973 
	C465.003784,41.134060 464.979248,44.795616 464.979248,48.456966 
	C464.979218,58.600163 461.574768,62.004589 450.971863,62.006660 
M454.931030,41.703682 
	C455.036743,38.629555 455.392761,35.808475 450.605743,35.873604 
	C445.897156,35.937660 446.795319,38.894543 446.748596,41.591015 
	C446.705566,44.074936 446.821350,46.563591 446.718292,49.043976 
	C446.596924,51.965366 446.731323,54.149132 450.771820,54.113853 
	C454.644684,54.080036 455.137451,52.158375 454.955597,49.105297 
	C454.827789,46.959534 454.930939,44.800011 454.931030,41.703682 
z"/>
<path fill="#FFC005" opacity="1.000000" stroke="none" 
	d="
M235.912933,47.999405 
	C234.724960,46.288612 233.985153,44.596466 232.975616,42.287338 
	C238.636581,42.287338 243.198761,42.287338 247.999847,42.287338 
	C247.999847,48.784626 247.999847,55.041935 247.999847,62.461109 
	C245.073242,61.785023 242.429550,60.746822 239.761093,60.678707 
	C237.121353,60.611324 234.465210,61.872623 231.801147,61.938393 
	C224.577347,62.116734 219.921906,57.323486 219.918762,50.089306 
	C219.917526,47.260525 219.918472,44.431747 219.918564,41.602966 
	C219.918884,31.571964 223.483810,27.889423 233.473587,28.047812 
	C237.308960,28.108624 241.221786,27.067375 244.837463,30.183470 
	C247.769363,32.710262 248.884888,35.165646 247.815155,39.190910 
	C244.459534,39.090233 240.863083,41.553043 237.949997,36.924942 
	C237.237488,35.792961 233.676422,36.106453 231.526260,36.429371 
	C230.842392,36.532074 230.120499,38.796417 230.049789,40.105831 
	C229.852707,43.755714 229.793716,47.440701 230.114883,51.073395 
	C230.206375,52.108227 231.770233,53.792656 232.682587,53.808407 
	C234.434906,53.838650 236.204163,52.888691 237.966385,52.345337 
	C237.431290,50.902908 236.896194,49.460480 235.912933,47.999405 
z"/>
<path fill="#FFC013" opacity="1.000000" stroke="none" 
	d="
M79.500214,40.823669 
	C83.769173,45.747971 81.727142,50.546692 78.730408,55.671394 
	C77.208748,56.658627 76.168106,57.310463 74.768005,57.983040 
	C71.907990,60.653500 69.407448,63.303211 66.571762,66.114182 
	C61.072651,67.863670 55.948845,69.610481 50.718079,70.934868 
	C49.312370,71.290787 47.581207,70.361298 45.990585,69.574821 
	C46.028595,68.232788 46.075459,67.337814 46.411514,66.663475 
	C47.734592,67.083229 49.040012,67.788216 49.759701,67.401932 
	C55.873093,64.120644 64.654968,66.085991 68.352859,57.966072 
	C68.781693,57.024429 70.038452,56.397629 71.007317,55.773914 
	C79.172508,50.517502 79.441093,49.823673 76.938950,41.100792 
	C78.133736,40.969555 78.816971,40.896610 79.500214,40.823669 
z"/>
<path fill="#FF780E" opacity="1.000000" stroke="none" 
	d="
M18.085882,45.001701 
	C19.085640,41.019325 19.955908,36.997520 21.150539,33.074486 
	C21.611687,31.560123 22.620541,30.096668 23.708879,28.912386 
	C26.270817,26.124603 28.992380,23.478617 31.731632,20.861368 
	C32.676212,19.958857 33.762951,18.935863 34.958984,18.612640 
	C40.004204,17.249197 45.115185,16.129091 50.599689,15.410501 
	C50.971226,16.685316 50.945187,17.469604 50.541519,18.274315 
	C45.455341,19.587254 40.723137,20.802683 36.057140,22.233950 
	C35.061913,22.539230 34.256111,23.576900 33.451813,24.367474 
	C31.352289,26.431179 29.204218,28.459414 27.269051,30.671137 
	C26.128342,31.974869 25.099524,33.500679 24.472336,35.103462 
	C23.201483,38.351139 22.237976,41.719078 20.765108,45.027466 
	C19.616932,45.012234 18.851408,45.006969 18.085882,45.001701 
z"/>
<path fill="#FFC812" opacity="1.000000" stroke="none" 
	d="
M75.127472,57.962296 
	C76.168106,57.310463 77.208748,56.658627 78.578674,56.002693 
	C79.381973,60.873039 78.036072,64.858978 73.437218,67.280876 
	C73.003151,67.509468 72.454910,67.789490 72.272659,68.188568 
	C68.305725,76.874977 59.119480,75.939278 52.133602,78.971878 
	C50.544601,79.661659 48.305271,78.853348 46.169426,78.085152 
	C45.979362,76.665878 45.985149,75.896034 46.370590,75.080338 
	C48.925655,74.954956 51.138752,75.096100 53.265717,74.732857 
	C55.328060,74.380646 57.280067,73.059784 59.319145,72.960976 
	C63.590572,72.753960 66.449249,70.943504 68.302048,66.850204 
	C70.987823,63.945385 75.926544,63.094128 75.127472,57.962296 
z"/>
<path fill="#FF9805" opacity="1.000000" stroke="none" 
	d="
M27.749905,68.115173 
	C22.873636,65.992920 20.269842,62.434040 21.005764,56.481659 
	C21.897957,55.276577 22.481550,54.548798 23.412453,53.930698 
	C27.117031,56.602757 30.474300,59.165127 33.367485,61.793648 
	C31.970818,61.903946 31.038231,61.948097 29.904991,61.690987 
	C28.043802,60.451519 26.383265,59.513321 24.722727,58.575119 
	C24.282246,59.145931 23.841764,59.716743 23.401283,60.287552 
	C25.622030,62.471779 27.842777,64.655998 29.870399,67.128906 
	C29.034817,67.650124 28.392359,67.882645 27.749905,68.115173 
z"/>
<path fill="#FFB20E" opacity="1.000000" stroke="none" 
	d="
M27.907173,68.423073 
	C28.392359,67.882645 29.034817,67.650124 30.208488,67.216202 
	C32.932655,68.872726 34.898075,71.162819 37.380978,72.470024 
	C39.993076,73.845245 43.100143,74.280319 45.990936,75.126190 
	C45.985149,75.896034 45.979362,76.665878 45.950665,77.820076 
	C42.896877,77.491356 39.536003,77.371376 36.918663,75.915077 
	C33.647522,74.095009 30.988003,71.175720 27.907173,68.423073 
z"/>
<path fill="#FFB31E" opacity="1.000000" stroke="none" 
	d="
M79.449837,40.392624 
	C78.816971,40.896610 78.133736,40.969555 76.774628,40.782715 
	C74.722832,37.052948 73.346901,33.582966 72.097717,29.816662 
	C72.514786,28.946243 72.805107,28.372147 73.095428,27.798050 
	C75.010788,29.896852 77.298775,31.776665 78.707275,34.173336 
	C79.609314,35.708225 79.213470,38.005875 79.449837,40.392624 
z"/>
<path fill="#FF9D15" opacity="1.000000" stroke="none" 
	d="
M72.938942,27.503082 
	C72.805107,28.372147 72.514786,28.946243 71.757088,29.741623 
	C69.907288,28.605467 68.572609,27.194637 67.129921,25.904589 
	C65.461304,24.412510 63.697624,23.026749 61.978325,21.260506 
	C61.981876,20.035107 61.982319,19.144026 61.982761,18.252947 
	C64.364243,19.703413 66.900864,20.957293 69.073715,22.672112 
	C70.570801,23.853613 71.564034,25.673527 72.938942,27.503082 
z"/>
<path fill="#FF8208" opacity="1.000000" stroke="none" 
	d="
M61.577003,18.157513 
	C61.982319,19.144026 61.981876,20.035107 61.599174,21.309891 
	C57.784325,20.547029 54.351734,19.400463 50.919144,18.253895 
	C50.945187,17.469604 50.971226,16.685316 50.998589,15.508606 
	C54.390358,16.098150 57.780804,17.080114 61.577003,18.157513 
z"/>
<path fill="#FF880A" opacity="1.000000" stroke="none" 
	d="
M23.065144,53.821014 
	C22.481550,54.548798 21.897957,55.276577 20.933359,56.069630 
	C19.633493,52.625332 18.714632,49.115765 17.940826,45.303947 
	C18.851408,45.006969 19.616932,45.012234 20.797802,45.425034 
	C21.830481,48.495380 22.447811,51.158199 23.065144,53.821014 
z"/>
<path fill="#FFF6DC" opacity="1.000000" stroke="none" 
	d="
M381.934570,35.924194 
	C388.596161,36.580563 384.042297,41.360809 385.663971,43.806438 
	C385.298553,44.008499 384.933136,44.210560 384.567688,44.412624 
	C383.154846,41.821972 381.742035,39.231319 380.258667,36.302052 
	C380.653931,35.955669 381.119659,35.947903 381.934570,35.924194 
z"/>
<path fill="#FFFCF4" opacity="1.000000" stroke="none" 
	d="
M489.442749,41.820557 
	C487.231018,41.949539 485.431976,41.949539 483.324219,41.949539 
	C483.213715,40.024158 483.121643,38.419529 482.976929,35.897953 
	C485.618774,36.193542 488.005249,36.229607 490.178070,36.929134 
	C490.543732,37.046844 489.986328,40.031551 489.442749,41.820557 
z"/>
<path fill="#FFFCF2" opacity="1.000000" stroke="none" 
	d="
M420.459106,53.574375 
	C418.292816,53.803959 416.508514,53.803959 414.485291,53.803959 
	C414.485291,47.835213 414.485291,42.108116 414.485291,36.418304 
	C421.806000,35.492538 422.295929,35.799068 422.102966,42.817146 
	C422.006195,46.335266 421.281677,49.836124 420.459106,53.574375 
z"/>
<path fill="#FFFDF7" opacity="1.000000" stroke="none" 
	d="
M454.931030,42.175156 
	C454.930939,44.800011 454.827789,46.959534 454.955597,49.105297 
	C455.137451,52.158375 454.644684,54.080036 450.771820,54.113853 
	C446.731323,54.149132 446.596924,51.965366 446.718292,49.043976 
	C446.821350,46.563591 446.705566,44.074936 446.748596,41.591015 
	C446.795319,38.894543 445.897156,35.937660 450.605743,35.873604 
	C455.392761,35.808475 455.036743,38.629555 454.931030,42.175156 
z"/>
<path fill="#FFFCF8" opacity="1.000000" stroke="none" 
	d="
M23.412453,53.930698 
	C22.447811,51.158199 21.830481,48.495380 21.180454,45.435001 
	C22.237976,41.719078 23.201483,38.351139 24.472336,35.103462 
	C25.099524,33.500679 26.128342,31.974869 27.269051,30.671137 
	C29.204218,28.459414 31.352289,26.431179 33.451813,24.367474 
	C34.256111,23.576900 35.061913,22.539230 36.057140,22.233950 
	C40.723137,20.802683 45.455341,19.587254 50.541519,18.274315 
	C54.351734,19.400463 57.784325,20.547029 61.596062,21.644211 
	C63.697624,23.026749 65.461304,24.412510 67.129921,25.904589 
	C68.572609,27.194637 69.907288,28.605467 71.630341,30.037945 
	C73.346901,33.582966 74.722832,37.052948 76.263084,40.841007 
	C79.441093,49.823673 79.172508,50.517502 71.007317,55.773914 
	C70.038452,56.397629 68.781693,57.024429 68.352859,57.966072 
	C64.654968,66.085991 55.873093,64.120644 49.759701,67.401932 
	C49.040012,67.788216 47.734592,67.083229 46.207329,66.454971 
	C44.801971,65.723045 43.889980,65.420280 42.619862,64.986160 
	C39.451679,63.812370 36.641624,62.769936 33.831570,61.727501 
	C30.474300,59.165127 27.117031,56.602757 23.412453,53.930698 
M47.455326,52.541935 
	C45.121059,50.970081 42.786789,49.398228 39.999584,47.222317 
	C37.046753,42.707493 38.382084,38.855526 42.272388,35.908249 
	C45.243645,33.657249 48.429688,33.822342 50.991161,37.840725 
	C52.117908,44.331306 47.586136,42.607838 43.955597,42.101006 
	C44.207500,46.417110 46.701511,46.991467 49.709316,46.378231 
	C54.872662,45.325523 56.309738,40.267258 52.931759,34.031830 
	C49.401978,30.007353 45.192478,30.071953 40.907452,32.382004 
	C35.341141,35.382797 34.040371,42.472412 37.852695,49.836327 
	C40.281445,53.445335 43.338474,55.997471 48.812832,56.026264 
	C57.042118,55.715538 63.898472,50.481289 65.147247,43.313732 
	C65.389694,41.922134 64.752724,40.377319 64.521408,38.903179 
	C63.914112,38.686302 63.306816,38.469421 62.699520,38.252544 
	C61.405773,47.150940 56.748837,52.286667 47.455326,52.541935 
z"/>
<path fill="#FFF9ED" opacity="1.000000" stroke="none" 
	d="
M46.370590,75.080338 
	C43.100143,74.280319 39.993076,73.845245 37.380978,72.470024 
	C34.898075,71.162819 32.932655,68.872726 30.401611,66.927513 
	C27.842777,64.655998 25.622030,62.471779 23.401283,60.287552 
	C23.841764,59.716743 24.282246,59.145931 24.722727,58.575119 
	C26.383265,59.513321 28.043802,60.451519 29.959709,62.031170 
	C32.889091,67.994202 38.244389,67.496994 43.114899,68.719635 
	C44.219578,69.288223 45.109512,69.655045 45.999443,70.021873 
	C47.581207,70.361298 49.312370,71.290787 50.718079,70.934868 
	C55.948845,69.610481 61.072651,67.863670 66.805603,66.228378 
	C67.582481,66.453003 67.790367,66.724670 67.998253,66.996346 
	C66.449249,70.943504 63.590572,72.753960 59.319145,72.960976 
	C57.280067,73.059784 55.328060,74.380646 53.265717,74.732857 
	C51.138752,75.096100 48.925655,74.954956 46.370590,75.080338 
z"/>
<path fill="#FFF8E6" opacity="1.000000" stroke="none" 
	d="
M68.302048,66.850204 
	C67.790367,66.724670 67.582481,66.453003 67.140747,66.067123 
	C69.407448,63.303211 71.907990,60.653500 74.768005,57.983040 
	C75.926544,63.094128 70.987823,63.945385 68.302048,66.850204 
z"/>
<path fill="#FFB929" opacity="1.000000" stroke="none" 
	d="
M45.990585,69.574821 
	C45.109512,69.655045 44.219578,69.288223 43.148926,68.293823 
	C42.971462,66.816666 42.974728,65.967087 42.977989,65.117508 
	C43.889980,65.420280 44.801971,65.723045 45.918144,66.234329 
	C46.075459,67.337814 46.028595,68.232788 45.990585,69.574821 
z"/>
<path fill="#FFA90E" opacity="1.000000" stroke="none" 
	d="
M42.619865,64.986160 
	C42.974728,65.967087 42.971462,66.816666 42.934177,68.092056 
	C38.244389,67.496994 32.889091,67.994202 30.160362,62.332436 
	C31.038231,61.948097 31.970818,61.903946 33.367485,61.793648 
	C36.641624,62.769936 39.451679,63.812370 42.619865,64.986160 
z"/>
<path fill="#FF9211" opacity="1.000000" stroke="none" 
	d="
M50.973442,37.009636 
	C48.429688,33.822342 45.243645,33.657249 42.272388,35.908249 
	C38.382084,38.855526 37.046753,42.707493 39.856346,47.671745 
	C39.003895,48.476326 38.294678,48.831482 37.585461,49.186638 
	C34.040371,42.472412 35.341141,35.382797 40.907452,32.382004 
	C45.192478,30.071953 49.401978,30.007353 52.910683,34.666504 
	C52.250885,35.870663 51.612164,36.440147 50.973442,37.009636 
z"/>
<path fill="#FFB017" opacity="1.000000" stroke="none" 
	d="
M48.032677,52.881023 
	C56.748837,52.286667 61.405773,47.150940 62.699520,38.252544 
	C63.306816,38.469421 63.914112,38.686302 64.521408,38.903179 
	C64.752724,40.377319 65.389694,41.922134 65.147247,43.313732 
	C63.898472,50.481289 57.042118,55.715538 48.406536,55.572296 
	C48.011055,54.372562 48.021866,53.626793 48.032677,52.881023 
z"/>
<path fill="#FFA214" opacity="1.000000" stroke="none" 
	d="
M50.982300,37.425179 
	C51.612164,36.440147 52.250885,35.870663 53.020851,34.999008 
	C56.309738,40.267258 54.872662,45.325523 49.709316,46.378231 
	C46.701511,46.991467 44.207500,46.417110 43.955597,42.101006 
	C47.586136,42.607838 52.117908,44.331306 50.982300,37.425179 
z"/>
<path fill="#FFA514" opacity="1.000000" stroke="none" 
	d="
M47.744003,52.711479 
	C48.021866,53.626793 48.011055,54.372562 47.996162,55.491104 
	C43.338474,55.997471 40.281445,53.445335 37.719078,49.511482 
	C38.294678,48.831482 39.003895,48.476326 40.082813,47.973770 
	C42.786789,49.398228 45.121059,50.970081 47.744003,52.711479 
z"/>
</svg>